<svg id="Layer_2" data-name="Layer 2" xmlns="http://www.w3.org/2000/svg" viewBox="0 0 209.19 93.63"><defs><style>.cls-1{fill:#324b4e;}.cls-2{fill:#fff;}.cls-3{fill:#ff793f;}</style></defs><title>HorizonRealEstate_Logo</title><rect class="cls-1" width="209.19" height="93.61"/><path class="cls-2" d="M61.75,3.62,41.83,23.42a.45.45,0,0,1-.77-.32V17.41a1.4,1.4,0,0,0-1.4-1.4h-8.2a1.4,1.4,0,0,0-1.4,1.4V34.56a1.41,1.41,0,0,1-.41,1L5.47,59.6a1.41,1.41,0,0,0-.41,1v25A1.4,1.4,0,0,0,6.46,87h10.2a1.4,1.4,0,0,0,1.4-1.4V66.28a1.41,1.41,0,0,1,.41-1L63.32,20.44a1.39,1.39,0,0,1,2,0L85,40.11a1.39,1.39,0,0,0,2,0l7.21-7.2a1.41,1.41,0,0,0,0-2L66.68,3.62A3.49,3.49,0,0,0,61.75,3.62Z"/><path class="cls-3" d="M86.83,23.42l19.92-19.8a3.49,3.49,0,0,1,4.93,0l35.7,36.71a1,1,0,0,1-.69,1.69l-14.1.08A3.93,3.93,0,0,1,129.81,41L110.3,20.44a1.39,1.39,0,0,0-2,0L63.47,65.29a1.41,1.41,0,0,0-.41,1V85.61a1.4,1.4,0,0,1-1.4,1.4H51.46a1.4,1.4,0,0,1-1.4-1.4v-25a1.41,1.41,0,0,1,.41-1L74.65,35.55Z"/><path class="cls-2" d="M108.06,49.06h3.77v8.11h5.07V49.06h3.77V69.57H116.9V60.35h-5.07v9.22h-3.77Z"/><path class="cls-2" d="M136.84,59.16c0,7.5-2.09,10.76-6.93,10.76-4.53,0-6.74-3.22-6.74-10.8,0-7.4,2.57-10.38,6.91-10.38C134.66,48.74,136.84,52,136.84,59.16ZM127,59.08c0,4.87.76,7.76,3,7.76s3-2.68,3-7.75c0-4.77-.7-7.25-3-7.25S127,54.51,127,59.08Z"/><path class="cls-2" d="M143.1,60.82v8.75h-3.75V49.06h6.44c3.82,0,6,1.95,6,5.6,0,3-1.63,4.25-2.73,4.67,1.63.75,2.41,2.1,2.41,5.12v.82a23.74,23.74,0,0,0,.28,4.3H148.1a16.39,16.39,0,0,1-.37-4.33v-.75c0-2.74-.64-3.67-3-3.67Zm0-3h1.76c2.28,0,3.17-1,3.17-3a2.48,2.48,0,0,0-2.8-2.78H143.1Z"/><path class="cls-2" d="M158,49.06V69.57h-3.77V49.06Z"/><path class="cls-2" d="M159.84,67,168,52.28h-7.56V49.06h11.65V52l-7.89,14.39h8.31l-.49,3.19H159.84Z"/><path class="cls-2" d="M187,59.16c0,7.5-2.09,10.76-6.94,10.76-4.52,0-6.73-3.22-6.73-10.8,0-7.4,2.57-10.38,6.91-10.38C184.79,48.74,187,52,187,59.16Zm-9.81-.08c0,4.87.76,7.76,3,7.76s3-2.68,3-7.75c0-4.77-.71-7.25-3-7.25S177.16,54.51,177.16,59.08Z"/><path class="cls-2" d="M189.48,69.57V49.06h4.28c4.35,11.33,5.18,13.5,5.43,14.5h0c-.18-2.46-.19-5.48-.19-8.84V49.06h3.36V69.57h-4.1c-4.49-12.08-5.29-14.26-5.56-15.2h0c.16,2.52.16,5.54.16,9.22v6Z"/><path class="cls-2" d="M110.27,81.35v5.16h-2.12V75h2.93c2.09,0,3.33.7,3.33,2.78v.44c0,1.77-.87,2.22-1.4,2.4.8.32,1.26.8,1.26,2.37a28,28,0,0,0,.12,3.54h-2a21.19,21.19,0,0,1-.14-3.43c0-1.4-.22-1.73-1.45-1.73Zm0-1.46h.49c1.12,0,1.53-.36,1.53-1.61v-.4c0-.89-.22-1.43-1.42-1.43h-.6Z"/><path class="cls-2" d="M123.46,81.24h-3v3.63h3.48l-.27,1.64h-5.33V75h5.3v1.65h-3.18v3h3Z"/><path class="cls-2" d="M129.6,83.42l-.48,3.09H127L129.17,75h3l2.3,11.53h-2.21l-.54-3.09Zm1.86-1.63c-.32-2-.62-3.82-.77-5.12h-.08c-.06,1-.47,3.42-.74,5.12Z"/><path class="cls-2" d="M137.84,75H140v9.94h3.45l-.18,1.59h-5.38Z"/><path class="cls-2" d="M156.81,81.24h-3v3.63h3.47L157,86.51h-5.33V75H157v1.65H153.8v3h3Z"/><path class="cls-2" d="M162.51,83.11v.72c0,.86.3,1.33,1.11,1.33s1-.65,1-1.4c0-1.24-.32-1.63-1.79-2.6s-2.27-1.61-2.27-3.31c0-1.52.55-3.06,3-3s2.92,1.52,2.92,2.77v.61h-2.1v-.57c0-.8-.16-1.29-.86-1.29s-.87.51-.87,1.27.18,1.22,1.39,2c2,1.27,2.68,2,2.68,3.94,0,1.64-.68,3.19-3.24,3.19s-3.16-1.36-3.16-2.88v-.69Z"/><path class="cls-2" d="M171.86,76.63h-2.21V75h6.54v1.65H174v9.88h-2.11Z"/><path class="cls-2" d="M180.58,83.42l-.48,3.09H178L180.16,75h3l2.29,11.53h-2.21l-.54-3.09Zm1.86-1.63c-.31-2-.61-3.82-.77-5.12h-.08c-.06,1-.47,3.42-.74,5.12Z"/><path class="cls-2" d="M189.34,76.63h-2.21V75h6.54v1.65h-2.22v9.88h-2.11Z"/><path class="cls-2" d="M202.09,81.24h-3v3.63h3.48l-.27,1.64H197V75h5.29v1.65h-3.18v3h3Z"/></svg>