<svg id="Layer_2" data-name="Layer 2" xmlns="http://www.w3.org/2000/svg" viewBox="0 0 209.19 93.63"><defs><style>.cls-1{fill:#007e89;}.cls-2{fill:#ff793f;}</style></defs><title>HorizonRealEstate_Logo</title><path class="cls-1" d="M59.59,5.63,39.68,25.44a.45.45,0,0,1-.77-.33V19.42a1.4,1.4,0,0,0-1.4-1.4h-8.2a1.4,1.4,0,0,0-1.4,1.4V36.57a1.38,1.38,0,0,1-.42,1l-24.17,24a1.37,1.37,0,0,0-.41,1v25A1.4,1.4,0,0,0,4.31,89h10.2a1.4,1.4,0,0,0,1.4-1.4V68.29a1.37,1.37,0,0,1,.41-1L61.17,22.45a1.41,1.41,0,0,1,2,0L82.82,42.13a1.41,1.41,0,0,0,2,0L92,34.92a1.41,1.41,0,0,0,0-2L64.53,5.63A3.5,3.5,0,0,0,59.59,5.63Z"/><path class="cls-2" d="M84.68,25.44,104.59,5.63a3.5,3.5,0,0,1,4.94,0l35.7,36.71a1,1,0,0,1-.7,1.69l-14.09.08A3.91,3.91,0,0,1,127.66,43L108.15,22.45a1.41,1.41,0,0,0-2,0L61.32,67.3a1.37,1.37,0,0,0-.41,1V87.62a1.4,1.4,0,0,1-1.4,1.4H49.31a1.4,1.4,0,0,1-1.4-1.4v-25a1.37,1.37,0,0,1,.41-1l24.17-24Z"/><path d="M105.9,51.07h3.77v8.11h5.07V51.07h3.77V71.58h-3.77V62.36h-5.07v9.22H105.9Z"/><path d="M134.69,61.17c0,7.5-2.09,10.76-6.94,10.76-4.53,0-6.73-3.21-6.73-10.8,0-7.4,2.56-10.38,6.9-10.38C132.51,50.75,134.69,54.05,134.69,61.17Zm-9.81-.08c0,4.87.75,7.76,3,7.76s3-2.68,3-7.75c0-4.76-.71-7.25-3-7.25S124.88,56.52,124.88,61.09Z"/><path d="M140.94,62.84v8.74H137.2V51.07h6.44c3.82,0,6,2,6,5.61,0,3-1.63,4.24-2.73,4.67,1.63.74,2.4,2.09,2.4,5.12v.81a23.74,23.74,0,0,0,.28,4.3h-3.64a16.42,16.42,0,0,1-.36-4.33V66.5c0-2.74-.65-3.66-3-3.66Zm0-3h1.77c2.27,0,3.16-1,3.16-3a2.47,2.47,0,0,0-2.79-2.79h-2.14Z"/><path d="M155.83,51.07V71.58h-3.78V51.07Z"/><path d="M157.69,69l8.19-14.73h-7.56V51.07H170V54l-7.89,14.38h8.31l-.49,3.19H157.69Z"/><path d="M184.82,61.17c0,7.5-2.09,10.76-6.94,10.76-4.53,0-6.74-3.21-6.74-10.8,0-7.4,2.57-10.38,6.91-10.38C182.63,50.75,184.82,54.05,184.82,61.17ZM175,61.09c0,4.87.76,7.76,3,7.76s3-2.68,3-7.75c0-4.76-.71-7.25-3-7.25S175,56.52,175,61.09Z"/><path d="M187.33,71.58V51.07h4.27c4.35,11.34,5.19,13.5,5.44,14.5h0c-.18-2.46-.19-5.48-.19-8.84V51.07h3.37V71.58h-4.1c-4.49-12.08-5.29-14.26-5.56-15.2h0c.15,2.53.16,5.54.16,9.22v6Z"/><path d="M108.12,83.36v5.16H106V77h2.93c2.09,0,3.32.7,3.32,2.78v.44c0,1.77-.86,2.22-1.4,2.4.8.32,1.26.8,1.26,2.37a26.12,26.12,0,0,0,.13,3.54h-2a21.19,21.19,0,0,1-.14-3.43c0-1.4-.22-1.73-1.44-1.73Zm0-1.46h.48c1.12,0,1.53-.36,1.53-1.61v-.4c0-.89-.22-1.43-1.42-1.43h-.59Z"/><path d="M121.3,83.25h-3v3.63h3.47l-.27,1.64h-5.32V77h5.3v1.65h-3.18v3h3Z"/><path d="M127.44,85.44,127,88.52h-2.15L127,77h3l2.29,11.53h-2.21l-.54-3.08Zm1.86-1.64c-.31-2-.61-3.82-.77-5.12h-.07c-.06.95-.48,3.42-.75,5.12Z"/><path d="M135.68,77h2.12v9.94h3.45l-.18,1.59h-5.39Z"/><path d="M154.66,83.25h-3v3.63h3.48l-.27,1.64h-5.32V77h5.3v1.65h-3.19v3h3Z"/><path d="M160.35,85.13v.71c0,.86.31,1.33,1.11,1.33s1-.65,1-1.4c0-1.24-.32-1.62-1.79-2.6s-2.26-1.6-2.26-3.31c0-1.52.54-3,3-3s2.92,1.52,2.92,2.77v.61h-2.1v-.56c0-.81-.16-1.29-.86-1.29s-.87.5-.87,1.26.19,1.22,1.39,2c2.05,1.27,2.68,2,2.68,3.94,0,1.64-.68,3.19-3.24,3.19s-3.15-1.36-3.15-2.88v-.68Z"/><path d="M169.7,78.64h-2.2V77H174v1.65h-2.21v9.88H169.7Z"/><path d="M178.42,85.44l-.48,3.08h-2.15L178,77h3l2.3,11.53h-2.21l-.54-3.08Zm1.87-1.64c-.32-2-.62-3.82-.77-5.12h-.08c-.06.95-.47,3.42-.75,5.12Z"/><path d="M187.18,78.64H185V77h6.53v1.65H189.3v9.88h-2.12Z"/><path d="M199.93,83.25h-3v3.63h3.47l-.27,1.64H194.8V77h5.3v1.65h-3.18v3h3Z"/></svg>