<svg id="Layer_2" data-name="Layer 2" xmlns="http://www.w3.org/2000/svg" viewBox="0 0 209.19 93.63"><defs><style>.cls-1{fill:#324b4e;}.cls-2{fill:#ff793f;}</style></defs><title>HorizonRealEstate_Logo</title><path class="cls-1" d="M59.59,6.09,39.68,25.9a.45.45,0,0,1-.77-.33V19.88a1.4,1.4,0,0,0-1.4-1.4h-8.2a1.4,1.4,0,0,0-1.4,1.4V37a1.38,1.38,0,0,1-.42,1l-24.17,24a1.37,1.37,0,0,0-.41,1v25a1.4,1.4,0,0,0,1.4,1.4h10.2a1.4,1.4,0,0,0,1.4-1.4V68.75a1.37,1.37,0,0,1,.41-1L61.17,22.91a1.41,1.41,0,0,1,2,0L82.82,42.59a1.41,1.41,0,0,0,2,0L92,35.38a1.41,1.41,0,0,0,0-2L64.53,6.09A3.5,3.5,0,0,0,59.59,6.09Z"/><path class="cls-2" d="M84.68,25.9,104.59,6.09a3.5,3.5,0,0,1,4.94,0l35.7,36.71a1,1,0,0,1-.7,1.69l-14.09.08a3.94,3.94,0,0,1-2.78-1.14L108.15,22.91a1.41,1.41,0,0,0-2,0L61.32,67.76a1.37,1.37,0,0,0-.41,1V88.08a1.4,1.4,0,0,1-1.4,1.4H49.31a1.4,1.4,0,0,1-1.4-1.4v-25a1.37,1.37,0,0,1,.41-1L72.49,38Z"/><path d="M105.9,51.54h3.77v8.1h5.07v-8.1h3.77V72h-3.77V62.83h-5.07V72H105.9Z"/><path d="M134.69,61.63c0,7.5-2.09,10.76-6.94,10.76-4.53,0-6.73-3.21-6.73-10.8,0-7.4,2.56-10.38,6.9-10.38C132.51,51.21,134.69,54.51,134.69,61.63Zm-9.81-.08c0,4.87.75,7.76,3,7.76s3-2.68,3-7.75c0-4.76-.71-7.25-3-7.25S124.88,57,124.88,61.55Z"/><path d="M140.94,63.3V72H137.2V51.54h6.44c3.82,0,6,1.94,6,5.6,0,3-1.63,4.24-2.73,4.67,1.63.74,2.4,2.09,2.4,5.12v.81a23.74,23.74,0,0,0,.28,4.3h-3.64a16.42,16.42,0,0,1-.36-4.33V67c0-2.74-.65-3.66-3-3.66Zm0-3h1.77c2.27,0,3.16-1,3.16-3a2.47,2.47,0,0,0-2.79-2.79h-2.14Z"/><path d="M155.83,51.54V72h-3.78V51.54Z"/><path d="M157.69,69.48l8.19-14.73h-7.56V51.54H170v2.93l-7.89,14.38h8.31L169.91,72H157.69Z"/><path d="M184.82,61.63c0,7.5-2.09,10.76-6.94,10.76-4.53,0-6.74-3.21-6.74-10.8,0-7.4,2.57-10.38,6.91-10.38C182.63,51.21,184.82,54.51,184.82,61.63ZM175,61.55c0,4.87.76,7.76,3,7.76s3-2.68,3-7.75c0-4.76-.71-7.25-3-7.25S175,57,175,61.55Z"/><path d="M187.33,72V51.54h4.27C196,62.87,196.79,65,197,66h0c-.18-2.46-.19-5.48-.19-8.84V51.54h3.37V72h-4.1c-4.49-12.08-5.29-14.26-5.56-15.2h0c.15,2.53.16,5.54.16,9.22v6Z"/><path d="M108.12,83.82V89H106V77.45h2.93c2.09,0,3.32.7,3.32,2.78v.44c0,1.77-.86,2.22-1.4,2.4.8.32,1.26.8,1.26,2.37a26.12,26.12,0,0,0,.13,3.54h-2a21.19,21.19,0,0,1-.14-3.43c0-1.4-.22-1.73-1.44-1.73Zm0-1.46h.48c1.12,0,1.53-.36,1.53-1.61v-.4c0-.89-.22-1.43-1.42-1.43h-.59Z"/><path d="M121.3,83.71h-3v3.63h3.47L121.49,89h-5.32V77.45h5.3V79.1h-3.18v3h3Z"/><path d="M127.44,85.9,127,89h-2.15L127,77.45h3L132.3,89h-2.21l-.54-3.08Zm1.86-1.64c-.31-2-.61-3.82-.77-5.12h-.07c-.06,1-.48,3.42-.75,5.12Z"/><path d="M135.68,77.45h2.12v9.94h3.45L141.07,89h-5.39Z"/><path d="M154.66,83.71h-3v3.63h3.48L154.85,89h-5.32V77.45h5.3V79.1h-3.19v3h3Z"/><path d="M160.35,85.59v.71c0,.86.31,1.33,1.11,1.33s1-.65,1-1.4c0-1.24-.32-1.62-1.79-2.6s-2.26-1.6-2.26-3.31c0-1.52.54-3,3-3s2.92,1.52,2.92,2.77v.61h-2.1v-.56c0-.81-.16-1.29-.86-1.29s-.87.5-.87,1.26.19,1.22,1.39,2c2.05,1.27,2.68,2,2.68,3.94,0,1.64-.68,3.19-3.24,3.19s-3.15-1.36-3.15-2.88v-.68Z"/><path d="M169.7,79.1h-2.2V77.45H174V79.1h-2.21V89H169.7Z"/><path d="M178.42,85.9,177.94,89h-2.15L178,77.45h3L183.29,89h-2.21l-.54-3.08Zm1.87-1.64c-.32-2-.62-3.82-.77-5.12h-.08c-.06,1-.47,3.42-.75,5.12Z"/><path d="M187.18,79.1H185V77.45h6.53V79.1H189.3V89h-2.12Z"/><path d="M199.93,83.71h-3v3.63h3.47L200.12,89H194.8V77.45h5.3V79.1h-3.18v3h3Z"/></svg>